<?xml version="1.0" encoding="UTF-8"?>
<svg xmlns="http://www.w3.org/2000/svg" id="Layer_1" data-name="Layer 1" viewBox="0 0 24 24">
  <path d="m10,4H0V1h10v3Zm-2,2H0v3h8v-3Zm16,14h-3.052c.034.161.052.328.052.5,0,1.381-1.119,2.5-2.5,2.5s-2.5-1.119-2.5-2.5c0-.172.018-.339.052-.5H7.948c.034.161.052.328.052.5,0,1.381-1.119,2.5-2.5,2.5s-2.5-1.119-2.5-2.5c0-.172.018-.339.052-.5H0v-9h6v3h-3v3h11V4.5c0-.276-.225-.5-.5-.5h-1.5V1h1.5c1.93,0,3.5,1.57,3.5,3.5v.5h1.5c3.032,0,5.5,2.467,5.5,5.5v9.5Zm-7-12v5h4v-2.5c0-1.378-1.121-2.5-2.5-2.5h-1.5Z"/>
</svg>
